<?xml version="1.0" encoding="utf-8"?>
<!-- Generator: Adobe Illustrator 15.1.0, SVG Export Plug-In  -->
<!DOCTYPE svg PUBLIC "-//W3C//DTD SVG 1.1//EN" "http://www.w3.org/Graphics/SVG/1.1/DTD/svg11.dtd" [
	<!ENTITY ns_flows "http://ns.adobe.com/Flows/1.0/">
]>
<svg version="1.1"
	 xmlns="http://www.w3.org/2000/svg" xmlns:xlink="http://www.w3.org/1999/xlink" xmlns:a="http://ns.adobe.com/AdobeSVGViewerExtensions/3.0/"
	 x="0px" y="0px" width="117px" height="94px" viewBox="0 0 117 94" enable-background="new 0 0 117 94" xml:space="preserve">
<defs>
</defs>
<circle fill="#D1C0A5" cx="42.573" cy="48.586" r="4.322"/>
<circle fill="#D1C0A5" cx="74.555" cy="48.587" r="4.321"/>
<path fill="#D1C0A5" d="M113.013,41.246c-2.308-2.313-5.451-3.814-8.92-4.063c-2.161-10.15-7.557-19.102-15.102-25.663
	C80.75,4.349,69.951-0.002,58.167,0c-11.767-0.002-22.551,4.336-30.79,11.491c-7.583,6.58-12.999,15.572-15.151,25.772
	c-3.146,0.41-5.984,1.853-8.111,3.983C1.577,43.779-0.002,47.31,0,51.18c-0.002,3.867,1.577,7.4,4.114,9.932
	c2.532,2.537,6.064,4.115,9.932,4.113c0.274,0,0.532-0.039,0.8-0.057c3.383,8.055,8.913,14.973,15.907,20.008
	c7.709,5.553,17.194,8.826,27.413,8.824c10.266,0.002,19.787-3.303,27.514-8.896c6.959-5.039,12.462-11.945,15.825-19.98
	c0.517,0.061,1.039,0.102,1.574,0.102c3.869,0.002,7.401-1.576,9.933-4.113c2.537-2.531,4.115-6.064,4.114-9.932
	C117.128,47.31,115.55,43.779,113.013,41.246z M65.154,7.103c0.231,0.268,0.474,0.571,0.713,0.934
	c1.024,1.553,2.057,3.993,2.063,7.854c0,2.916-0.618,6.662-2.347,11.372c-5.457-4.394-8.589-8.444-10.351-11.78
	c-1.918-3.639-2.265-6.451-2.268-8.081c0-0.21,0.011-0.381,0.02-0.55c1.701-0.218,3.422-0.369,5.183-0.369
	C60.553,6.483,62.883,6.707,65.154,7.103z M51.792,17.299c0.981,1.859,2.322,3.862,4.069,5.953
	c-1.751-0.708-3.508-1.371-5.158-2.069c-2.82-1.188-5.294-2.516-6.97-4.286c-0.844-0.888-1.506-1.879-1.979-3.08
	c-0.388-0.993-0.636-2.155-0.715-3.522c2.545-1.189,5.238-2.104,8.04-2.747C49.096,9.749,49.613,13.177,51.792,17.299z
	 M108.428,56.527c-1.378,1.375-3.248,2.213-5.348,2.217c-0.867-0.002-1.701-0.156-2.505-0.438l-3.068-1.078l-1.067,3.072
	c-2.75,7.914-7.893,14.727-14.561,19.551c-6.671,4.824-14.843,7.664-23.712,7.666c-8.831-0.002-16.971-2.816-23.626-7.604
	c-6.652-4.785-11.795-11.545-14.575-19.404l-1.007-2.846l-2.908,0.801c-0.665,0.18-1.328,0.279-2.004,0.279
	c-2.1-0.004-3.968-0.842-5.348-2.217c-1.374-1.381-2.212-3.25-2.214-5.348c0.002-2.1,0.841-3.969,2.214-5.35
	c1.38-1.373,3.249-2.211,5.348-2.213c0.132-0.001,0.33,0.01,0.603,0.031l3.007,0.237l0.452-2.984
	c1.467-9.737,6.404-18.339,13.519-24.514c1.777-1.541,3.689-2.93,5.714-4.147c0.176,1.098,0.447,2.127,0.826,3.074
	c0.596,1.502,1.434,2.803,2.427,3.914c1.741,1.951,3.917,3.321,6.191,4.445c3.416,1.679,7.104,2.839,10.203,4.286
	c1.55,0.72,2.944,1.502,4.087,2.402c1.147,0.905,2.041,1.911,2.679,3.13c0.343,0.661,1.027,1.065,1.771,1.048
	c0.743-0.018,1.409-0.454,1.72-1.13c3.363-7.285,4.574-13.016,4.576-17.519c0.005-3.05-0.566-5.525-1.371-7.473
	c5.316,1.691,10.171,4.417,14.289,7.996c7.117,6.191,12.048,14.818,13.499,24.575l0.478,3.221l3.218-0.493
	c0.429-0.064,0.809-0.099,1.147-0.099c2.1,0.002,3.97,0.841,5.348,2.213c1.375,1.381,2.214,3.25,2.217,5.35
	C110.642,53.277,109.803,55.146,108.428,56.527z"/>
<path fill="#D1C0A5" d="M70.423,63.324c-2.702,3.744-7.087,6.074-11.859,6.072c-4.765,0.002-9.157-2.33-11.862-6.074
	c-0.734-1.014-2.152-1.242-3.167-0.51c-1.016,0.734-1.244,2.152-0.51,3.17c3.542,4.902,9.284,7.953,15.539,7.953
	c6.262,0,12-3.051,15.54-7.955c0.732-1.018,0.504-2.434-0.512-3.168C72.575,62.08,71.156,62.309,70.423,63.324z"/>
</svg>
