<?xml version="1.0" encoding="utf-8"?>
<!-- Generator: Adobe Illustrator 15.1.0, SVG Export Plug-In  -->
<!DOCTYPE svg PUBLIC "-//W3C//DTD SVG 1.1//EN" "http://www.w3.org/Graphics/SVG/1.1/DTD/svg11.dtd" [
	<!ENTITY ns_flows "http://ns.adobe.com/Flows/1.0/">
]>
<svg version="1.1"
	 xmlns="http://www.w3.org/2000/svg" xmlns:xlink="http://www.w3.org/1999/xlink" xmlns:a="http://ns.adobe.com/AdobeSVGViewerExtensions/3.0/"
	 x="0px" y="0px" width="30px" height="30px" viewBox="0 0 30 30" enable-background="new 0 0 30 30" xml:space="preserve">
<defs>
</defs>
<path fill="#C3AF97" d="M15,0C6.716,0.001,0.001,6.716,0,15c0.001,8.284,6.716,14.999,15,15c8.285-0.001,14.999-6.716,15-15
	C29.999,6.716,23.285,0.001,15,0z M23.958,23.958c-2.297,2.294-5.456,3.709-8.958,3.71c-3.502-0.001-6.662-1.416-8.958-3.71
	c-2.294-2.297-3.71-5.456-3.71-8.958c0-3.502,1.416-6.662,3.71-8.958c2.296-2.294,5.456-3.71,8.958-3.71
	c3.502,0,6.661,1.417,8.958,3.71c2.294,2.297,3.71,5.457,3.71,8.958C27.668,18.502,26.252,21.661,23.958,23.958z"/>
<path fill="#C3AF97" d="M19.518,9.508C17.728,8.221,16.303,9.205,15,9.205c-1.302,0-2.727-0.984-4.517,0.304
	c-1.79,1.287-1.806,3.891-0.732,6.968c0.977,2.803,1.669,4.112,1.791,4.712c0.244,1.212,1.79,1.212,2.115-0.076
	c0.177-0.699,0.122-3.197,1.343-3.197s1.167,2.498,1.344,3.197c0.325,1.288,1.871,1.288,2.115,0.076
	c0.121-0.601,0.814-1.909,1.79-4.712C21.322,13.399,21.308,10.795,19.518,9.508z"/>
</svg>
