<?xml version="1.0" encoding="utf-8"?>
<!-- Generator: Adobe Illustrator 15.1.0, SVG Export Plug-In  -->
<!DOCTYPE svg PUBLIC "-//W3C//DTD SVG 1.1//EN" "http://www.w3.org/Graphics/SVG/1.1/DTD/svg11.dtd" [
	<!ENTITY ns_flows "http://ns.adobe.com/Flows/1.0/">
]>
<svg version="1.1"
	 xmlns="http://www.w3.org/2000/svg" xmlns:xlink="http://www.w3.org/1999/xlink" xmlns:a="http://ns.adobe.com/AdobeSVGViewerExtensions/3.0/"
	 x="0px" y="0px" width="80px" height="94px" viewBox="0 0 80 94" enable-background="new 0 0 80 94" xml:space="preserve">
<defs>
</defs>
<path fill="#D1C0A5" d="M7.619,84.35v7.856C7.619,93.197,8.425,94,9.42,94h10.686c0.994,0,1.799-0.803,1.799-1.794v-5.483h-5.079
	C13.487,86.723,10.35,85.858,7.619,84.35z"/>
<path fill="#D1C0A5" d="M58.096,86.723v5.483c0,0.991,0.807,1.794,1.8,1.794h10.687c0.993,0,1.799-0.803,1.799-1.794V84.35
	c-2.73,1.509-5.87,2.373-9.206,2.373H58.096z"/>
<path fill="#D1C0A5" d="M60.203,0H19.797C8.864,0,0,8.836,0,19.737V67.73c0,9.249,7.55,16.775,16.827,16.775h46.348
	C72.453,84.506,80,76.979,80,67.73V19.737C80,8.836,71.138,0,60.203,0z M22.857,8.86h34.286v5.7H22.857V8.86z M12.539,27.273
	c0-2.476,2.017-4.484,4.502-4.484h45.92c2.486,0,4.498,2.008,4.498,4.484v18.936c0,2.477-2.012,4.486-4.498,4.486h-45.92
	c-2.486,0-4.502-2.009-4.502-4.486V27.273z M16.827,72.648c-2.899,0-5.25-2.344-5.25-5.233c0-2.892,2.351-5.234,5.25-5.234
	c2.897,0,5.248,2.343,5.248,5.234C22.075,70.305,19.724,72.648,16.827,72.648z M50.337,79.125H30.655V70.58h19.683V79.125z
	 M63.175,72.648c-2.899,0-5.249-2.344-5.249-5.233c0-2.892,2.35-5.234,5.249-5.234c2.898,0,5.248,2.343,5.248,5.234
	C68.423,70.305,66.073,72.648,63.175,72.648z"/>
</svg>
