<?xml version="1.0" encoding="utf-8"?>
<!-- Generator: Adobe Illustrator 15.1.0, SVG Export Plug-In  -->
<!DOCTYPE svg PUBLIC "-//W3C//DTD SVG 1.1//EN" "http://www.w3.org/Graphics/SVG/1.1/DTD/svg11.dtd" [
	<!ENTITY ns_flows "http://ns.adobe.com/Flows/1.0/">
]>
<svg version="1.1"
	 xmlns="http://www.w3.org/2000/svg" xmlns:xlink="http://www.w3.org/1999/xlink" xmlns:a="http://ns.adobe.com/AdobeSVGViewerExtensions/3.0/"
	 x="0px" y="0px" width="126px" height="63px" viewBox="0 0 126 63" enable-background="new 0 0 126 63" xml:space="preserve">
<defs>
</defs>
<path fill="#D1C0A5" d="M123.127,20.579l-8.373-13.336C111.922,2.734,106.976,0,101.658,0H62.667c-6.559,0-12.845,2.64-17.435,7.327
	L34.103,18.684L7.564,24.833C3.134,25.862,0,29.813,0,34.361v10.432c0,2.246,1.823,4.072,4.07,4.072h14.11
	c-0.018,0.281-0.046,0.561-0.046,0.844C18.134,57.051,24.082,63,31.417,63c7.332,0,13.279-5.949,13.279-13.291
	c0-0.283-0.027-0.563-0.046-0.844h41.756c-0.019,0.281-0.047,0.561-0.047,0.844C86.359,57.051,92.308,63,99.64,63
	c7.336,0,13.278-5.949,13.278-13.291c0-0.283-0.022-0.563-0.042-0.844h9.055c2.247,0,4.069-1.826,4.069-4.072V30.552
	C126,27.023,125.005,23.569,123.127,20.579z M31.417,55.006c-2.922,0-5.289-2.375-5.289-5.297c0-2.924,2.367-5.295,5.289-5.295
	c2.919,0,5.29,2.371,5.29,5.295C36.708,52.631,34.337,55.006,31.417,55.006z M65.001,21.587H41.083l9.154-9.343
	c3.252-3.319,7.783-5.221,12.429-5.221h2.335V21.587z M92.286,21.587h-21.15V7.022h21.15V21.587z M99.64,55.006
	c-2.919,0-5.29-2.375-5.29-5.297c0-2.924,2.371-5.295,5.29-5.295c2.923,0,5.289,2.371,5.289,5.295
	C104.929,52.631,102.563,55.006,99.64,55.006z M98.425,21.587V7.022h3.233c2.923,0,5.601,1.479,7.152,3.957l6.66,10.607H98.425z"/>
</svg>
