<?xml version="1.0" encoding="utf-8"?>
<!-- Generator: Adobe Illustrator 15.1.0, SVG Export Plug-In  -->
<!DOCTYPE svg PUBLIC "-//W3C//DTD SVG 1.1//EN" "http://www.w3.org/Graphics/SVG/1.1/DTD/svg11.dtd" [
	<!ENTITY ns_flows "http://ns.adobe.com/Flows/1.0/">
]>
<svg version="1.1"
	 xmlns="http://www.w3.org/2000/svg" xmlns:xlink="http://www.w3.org/1999/xlink" xmlns:a="http://ns.adobe.com/AdobeSVGViewerExtensions/3.0/"
	 x="0px" y="0px" width="78px" height="94px" viewBox="0 0 78 94" enable-background="new 0 0 78 94" xml:space="preserve">
<defs>
</defs>
<path fill="#D1C0A5" d="M67.535,94H78L60.43,73.052c6.788-1.315,11.921-7.292,11.921-14.472V14.749C72.351,5.239,63.125,0,38.896,0
	C14.667,0,5.443,5.239,5.443,14.749V58.58c0,7.242,5.225,13.257,12.104,14.498L0,94h10.465l11.787-14.059h33.489L67.535,94z
	 M57.618,62.024c-2.812,0-5.093-2.284-5.093-5.1c0-2.816,2.282-5.099,5.093-5.099c2.814,0,5.095,2.283,5.095,5.099
	C62.713,59.74,60.433,62.024,57.618,62.024z M25.543,6.493c0-0.391,0.314-0.703,0.702-0.703h25.302c0.388,0,0.702,0.312,0.702,0.703
	v4.381c0,0.389-0.314,0.704-0.702,0.704H26.246c-0.388,0-0.702-0.314-0.702-0.704V6.493z M12.741,38.067V19.546
	c0-1.813,1.466-3.281,3.278-3.281h45.756c1.81,0,3.277,1.468,3.277,3.281v18.521c0,1.813-1.468,3.283-3.277,3.283H16.02
	C14.207,41.35,12.741,39.88,12.741,38.067z M15.081,56.924c0-2.816,2.28-5.099,5.092-5.099c2.814,0,5.093,2.283,5.093,5.099
	c0,2.815-2.279,5.1-5.093,5.1C17.361,62.024,15.081,59.74,15.081,56.924z"/>
</svg>
