<?xml version="1.0" encoding="utf-8"?>
<!-- Generator: Adobe Illustrator 15.1.0, SVG Export Plug-In  -->
<!DOCTYPE svg PUBLIC "-//W3C//DTD SVG 1.1//EN" "http://www.w3.org/Graphics/SVG/1.1/DTD/svg11.dtd" [
	<!ENTITY ns_flows "http://ns.adobe.com/Flows/1.0/">
]>
<svg version="1.1"
	 xmlns="http://www.w3.org/2000/svg" xmlns:xlink="http://www.w3.org/1999/xlink" xmlns:a="http://ns.adobe.com/AdobeSVGViewerExtensions/3.0/"
	 x="0px" y="0px" width="8px" height="24px" viewBox="0 0 8 24" enable-background="new 0 0 8 24" xml:space="preserve">
<defs>
</defs>
<path fill="#59493F" d="M5.796,0C4.041-0.005,2.167,2.335,1.302,4.676C0.628,6.499,0.009,9.129,0,11.982
	c-0.008,2.683,0.594,5.487,1.255,7.314C2.105,21.642,3.964,23.995,5.719,24c0.888,0.003,2.535-0.497,2.707-0.667
	c0,0,0.004-1.192,0.005-1.454l0.013-3.997c0.001-0.297-0.972-0.661-1.563-0.698c-0.796-0.05-1.91,0.483-1.91,0.483
	c-0.549-0.03-0.733-0.477-1.221-1.254c-0.6-0.955-0.764-2.811-0.806-4.422c0.052-1.611,0.228-3.467,0.833-4.417
	C4.271,6.8,4.457,6.354,5.006,6.327c0,0,1.11,0.541,1.907,0.497C7.503,6.79,8.479,6.433,8.48,6.135l0.013-3.997
	c0-0.261,0.005-1.454,0.005-1.454C8.327,0.513,6.683,0.003,5.796,0z"/>
</svg>
