<?xml version="1.0" encoding="utf-8"?>
<!-- Generator: Adobe Illustrator 15.1.0, SVG Export Plug-In  -->
<!DOCTYPE svg PUBLIC "-//W3C//DTD SVG 1.1//EN" "http://www.w3.org/Graphics/SVG/1.1/DTD/svg11.dtd" [
	<!ENTITY ns_flows "http://ns.adobe.com/Flows/1.0/">
]>
<svg version="1.1"
	 xmlns="http://www.w3.org/2000/svg" xmlns:xlink="http://www.w3.org/1999/xlink" xmlns:a="http://ns.adobe.com/AdobeSVGViewerExtensions/3.0/"
	 x="0px" y="0px" width="68px" height="75px" viewBox="0 0 68 75" enable-background="new 0 0 68 75" xml:space="preserve">
<defs>
</defs>
<path fill="#D1C0A5" d="M59.703,3.756C49.516-3.537,41.413,2.036,34,2.036c-7.411,0-15.513-5.573-25.702,1.72
	C-1.888,11.045-1.974,25.789,4.131,43.219C9.687,59.093,13.63,66.503,14.32,69.904c1.388,6.864,10.186,6.864,12.036-0.431
	c1.008-3.96,0.7-18.105,7.644-18.105s6.637,14.146,7.645,18.105c1.85,7.295,10.647,7.295,12.037,0.431
	c0.688-3.401,4.632-10.812,10.187-26.686C69.974,25.789,69.889,11.045,59.703,3.756z"/>
</svg>
